<?xml version="1.0" encoding="utf-8"?>
<!-- Generator: Adobe Illustrator 21.0.0, SVG Export Plug-In . SVG Version: 6.00 Build 0)  -->
<svg version="1.1" xmlns="http://www.w3.org/2000/svg" xmlns:xlink="http://www.w3.org/1999/xlink" x="0px" y="0px"
	 viewBox="0 0 73.8 73.8" style="enable-background:new 0 0 73.8 73.8;" xml:space="preserve">
<style type="text/css">
	.st0{display:none;}
	.st1{display:inline;}
	.st2{fill:#8181D3;}
	.st3{fill:#B2C3F7;}
	.st4{fill:#FFFFFF;}
	.st5{fill:#CFD8DC;}
	.st6{fill:#B0BEC5;}
</style>
<g id="Layer_1" class="st0">
	<g id="Shield" class="st1">
		<path class="st2" d="M19.7-5.4c0-0.5,0.4-0.9,0.9-0.9h36.5c0.5,0,0.9,0.4,1,0.9c0,0,0.9,5,3,7.2c2.3,2.4,8.3,4.1,8.3,4.1
			c0.5,0.1,0.9,0.5,0.9,1c0,0-0.1,13.9-0.1,29.1S39.7,70.3,39.7,70.3c-0.4,0.3-1.1,0.3-1.5,0c0,0-30.6-19.4-30.6-34.1S7.6,7,7.6,7
			c0-0.5,0.4-0.9,0.9-1c0,0,7.1-0.9,9.1-4.8S19.7-5.4,19.7-5.4z"/>
		<path class="st3" d="M39-6.3h18.1c0.5,0,0.9,0.4,1,0.9c0,0,0.9,5,3,7.2c2.3,2.4,8.3,4.1,8.3,4.1c0.5,0.1,0.9,0.5,0.9,1
			c0,0-0.1,13.9-0.1,29.1S39.7,70.3,39.7,70.3c-0.2,0.1-0.7,0.2-0.7,0.2V-6.3z"/>
	</g>
	<g id="Layer_8" class="st1">
		<path class="st4" d="M56.4,27.2L40.5,16.8c-0.8-0.5-1.4-0.2-1.4,0.8c0,0,0,2.1,0,2.5s0.1,0.5,0.3,0.6c0.1,0.1,10,6.6,10,6.6
			c0.8,0.5,0.8,1.3,0,1.9c0,0-9.4,6-9.7,6.2c-0.3,0.2-0.6,0.5-0.6,0.8s0,2.4,0,2.4c0,0.9,0.8,1.3,1.6,0.8l15.7-10.2
			C57.1,28.6,57.2,27.7,56.4,27.2z"/>
		<path class="st4" d="M44.7,29.1c0.8-0.5,0.8-1.3,0-1.9L28.6,16.8c-0.8-0.5-1.6-0.2-1.6,0.7v21.2c0,0.9,0.9,1.3,1.6,0.8L44.7,29.1z
			"/>
	</g>
	<g id="nauGsD_1_" class="st1">
		
			<image style="overflow:visible;" width="106" height="120" id="nauGsD" xlink:href="8AFB9762BA7994EB.jpg"  transform="matrix(1 0 0 1 -18 -21.6667)">
		</image>
	</g>
</g>
<g id="Layer_2">
	<polygon class="st5" points="1.2,8.3 36.8,25.2 36.8,71.8 0.8,53 	"/>
	<polygon class="st6" points="72.5,8.3 36.8,25.2 36.8,71.8 72.8,53 	"/>
	<path class="st5" d="M20.1,2.3c0,0,4.4,5.8,16.3,5.8c0.6,0,10.4,0.4,16.4-5.8c0,2.5,0,8.5,0,8.5S48.2,16,36.3,16
		c0,0-11.5,0.3-16.3-5.3C20,9,20.2,2.2,20.1,2.3z"/>
</g>
</svg>
