<svg width="225" height="161" viewBox="0 0 225 161" fill="none" xmlns="http://www.w3.org/2000/svg">
<path fill-rule="evenodd" clip-rule="evenodd" d="M107.876 25.2927V94.901H50.2144L107.876 25.2927Z" fill="#16140C"/>
<path fill-rule="evenodd" clip-rule="evenodd" d="M107.876 0.304382C107.876 16.2279 94.9685 29.135 79.045 29.135C63.1215 29.135 50.2144 16.2279 50.2144 0.304382H107.876Z" fill="#16140C"/>
<path fill-rule="evenodd" clip-rule="evenodd" d="M117.377 94.8969C117.377 78.9734 130.284 66.0663 146.207 66.0663C162.131 66.0663 175.032 78.9734 175.032 94.8969H117.377Z" fill="#16140C"/>
<path fill-rule="evenodd" clip-rule="evenodd" d="M117.379 69.9188V0.304565H175.034L117.379 69.9188Z" fill="#16140C"/>
<path fill-rule="evenodd" clip-rule="evenodd" d="M156.498 142.74C155.888 138.811 153.541 135.919 148.848 135.919C144.486 135.919 141.464 138.396 140.658 142.74H156.498ZM149.582 154.456C153.274 154.456 155.959 152.938 157.571 151.35L161.535 155.623C158.91 158.313 155.289 160.311 149.654 160.311C139.988 160.311 133.742 153.904 133.742 145.217C133.742 136.606 140.326 130.129 148.777 130.129C158.371 130.129 163.811 137.43 163.343 147.563H140.658C141.464 151.765 144.415 154.456 149.582 154.456Z" fill="#16140C"/>
<path fill-rule="evenodd" clip-rule="evenodd" d="M0.626709 154.133L18.0851 136.397H1.02969V130.832H26.1802V136.509L8.71588 154.252H26.4113V159.811H0.626709V154.133Z" fill="#16140C"/>
<path fill-rule="evenodd" clip-rule="evenodd" d="M52.9319 142.74C52.3215 138.811 49.9747 135.919 45.2753 135.919C40.9137 135.919 37.8973 138.396 37.0913 142.74H52.9319ZM46.0161 154.456C49.7081 154.456 52.3926 152.938 54.0045 151.35L57.9632 155.623C55.3438 158.313 51.7229 160.311 46.0872 160.311C36.4158 160.311 30.1755 153.904 30.1755 145.217C30.1755 136.606 36.7595 130.129 45.2101 130.129C54.8045 130.129 60.2447 137.43 59.7706 147.563H37.0913C37.8973 151.765 40.8485 154.456 46.0161 154.456Z" fill="#16140C"/>
<path fill-rule="evenodd" clip-rule="evenodd" d="M122.034 145.178C122.034 140.022 118.135 135.791 112.837 135.791C107.657 135.791 103.64 139.904 103.64 145.178C103.64 150.452 107.657 154.63 112.837 154.63C118.135 154.63 122.034 150.393 122.034 145.178ZM97.4705 145.237C97.4705 135.963 104.392 130.161 112.025 130.161C115.865 130.161 119.533 131.844 121.685 134.511V117.408H127.854V159.732H121.685V155.726C119.474 158.571 115.806 160.307 111.966 160.307C104.576 160.307 97.4705 154.452 97.4705 145.237Z" fill="#16140C"/>
<path fill-rule="evenodd" clip-rule="evenodd" d="M167.361 153.589L172.943 150.691C174.52 153.358 177.08 154.923 180.399 154.923C183.889 154.923 185.697 153.127 185.697 151.1C185.697 148.777 182.319 148.256 178.65 147.503C173.702 146.46 168.582 144.836 168.582 138.869C168.582 134.288 172.943 130.056 179.818 130.116C185.228 130.116 189.24 132.255 191.516 135.734L186.331 138.578C184.997 136.546 182.728 135.271 179.818 135.271C176.499 135.271 174.81 136.895 174.81 138.75C174.81 140.836 177.489 141.417 181.679 142.341C186.455 143.384 191.866 144.949 191.866 150.982C191.866 154.982 188.375 160.375 180.102 160.315C174.052 160.315 169.803 157.88 167.361 153.589Z" fill="#16140C"/>
<path fill-rule="evenodd" clip-rule="evenodd" d="M208.62 146.861L203.731 152.194V159.732H197.562V117.414H203.731V145.125L216.828 130.748H224.337L212.982 143.151L224.627 159.732H217.64L208.62 146.861Z" fill="#16140C"/>
<path fill-rule="evenodd" clip-rule="evenodd" d="M78.8331 130.158C71.5025 130.158 65.363 134.911 65.363 142.793V159.724H71.6447V143.581C71.6447 138.822 74.3767 135.978 79.0346 135.978C83.6866 135.978 86.0215 138.822 86.0215 143.581V159.724H92.3091V142.793C92.3091 134.911 86.1637 130.158 78.8331 130.158Z" fill="#16140C"/>
</svg>
